<svg xmlns="http://www.w3.org/2000/svg" width="20" height="21" viewBox="0 0 20 21" fill="none">
    <path d="M8.41425 11.2566L10.0001 12.8425C10.3906 13.233 10.3906 13.8662 10.0001 14.2567C9.60955 14.6472 8.97645 14.6472 8.58595 14.2567L5.2929 10.9637C4.90237 10.5732 4.90237 9.94005 5.2929 9.54955L8.58565 6.25676C8.97615 5.86624 9.60935 5.86624 9.99985 6.25676C10.3904 6.64729 10.3904 7.28045 9.99985 7.67098L8.41425 9.25665H14C14.5522 9.25665 15 9.70435 15 10.2566C15 10.8089 14.5522 11.2566 14 11.2566H8.41425Z"
          fill="currentColor"/>
    <path fill-rule="evenodd" clip-rule="evenodd"
          d="M0 10.2569C0 4.73399 4.47716 0.256836 10 0.256836C15.5229 0.256836 20.0001 4.73399 20.0001 10.2569C20.0001 15.7797 15.5229 20.2569 10 20.2569C4.47716 20.2569 0 15.7797 0 10.2569ZM10 18.2569C5.58173 18.2569 2 14.6751 2 10.2569C2 5.83856 5.58173 2.25684 10 2.25684C14.4182 2.25684 18.0001 5.83856 18.0001 10.2569C18.0001 14.6751 14.4182 18.2569 10 18.2569Z"
          fill="currentColor"/>
</svg>