<svg xmlns="http://www.w3.org/2000/svg" width="20" height="21" viewBox="0 0 20 21" fill="none">
    <path d="M6.50194 6.75676C6.89246 6.36624 7.52564 6.36624 7.91616 6.75676L10.002 8.84256L12.0877 6.75676C12.4783 6.36624 13.1114 6.36624 13.502 6.75676C13.8925 7.14729 13.8925 7.78045 13.502 8.17098L11.4162 10.2568L13.502 12.3426C13.8925 12.7331 13.8925 13.3663 13.502 13.7568C13.1114 14.1473 12.4783 14.1473 12.0877 13.7568L10.002 11.671L7.91614 13.7568C7.52562 14.1473 6.89247 14.1473 6.50194 13.7568C6.11142 13.3663 6.11142 12.7331 6.50194 12.3426L8.58769 10.2568L6.50194 8.17098C6.11141 7.78045 6.11141 7.14729 6.50194 6.75676Z"
          fill="currentColor"/>
    <path fill-rule="evenodd" clip-rule="evenodd"
          d="M20.002 10.2568C20.002 15.7796 15.5248 20.2568 10.002 20.2568C4.47911 20.2568 0.00195312 15.7796 0.00195312 10.2568C0.00195312 4.73399 4.47911 0.256836 10.002 0.256836C15.5248 0.256836 20.002 4.73399 20.002 10.2568ZM18.002 10.2568C18.002 14.6751 14.4202 18.2568 10.002 18.2568C5.58368 18.2568 2.00195 14.6751 2.00195 10.2568C2.00195 5.83856 5.58368 2.25684 10.002 2.25684C14.4202 2.25684 18.002 5.83856 18.002 10.2568Z"
          fill="currentColor"/>
</svg>