<svg xmlns="http://www.w3.org/2000/svg" width="20" height="22" viewBox="0 0 20 22" fill="none">
    <path d="M13.4998 7.49992C13.1093 7.1094 12.4761 7.1094 12.0856 7.49992L9.9998 9.58568L7.91403 7.49992C7.5235 7.1094 6.89034 7.1094 6.49981 7.49992C6.10929 7.89045 6.10929 8.52361 6.49981 8.91413L8.5856 10.9999L6.49981 13.0857C6.10928 13.4762 6.10928 14.1094 6.49981 14.4999C6.89033 14.8905 7.5235 14.8905 7.91402 14.4999L9.9998 12.4141L12.0856 14.4999C12.4761 14.8905 13.1093 14.8905 13.4998 14.4999C13.8903 14.1094 13.8903 13.4762 13.4998 13.0857L11.414 10.9999L13.4998 8.91413C13.8903 8.52361 13.8903 7.89045 13.4998 7.49992Z"
          fill="currentColor"/>
    <path fill-rule="evenodd" clip-rule="evenodd"
          d="M10.9999 0.577523C10.3811 0.220253 9.6187 0.220253 8.9999 0.577523L1.47363 4.92281C0.854833 5.28008 0.473633 5.94033 0.473633 6.65486V15.3454C0.473633 16.06 0.854833 16.7202 1.47363 17.0775L8.9999 21.4228C9.6187 21.78 10.3811 21.78 10.9999 21.4228L18.5262 17.0775C19.145 16.7202 19.5262 16.06 19.5262 15.3454V6.65486C19.5262 5.94033 19.145 5.28008 18.5262 4.92281L10.9999 0.577523ZM17.5262 6.65486L9.9999 2.30957L2.47363 6.65486V15.3454L9.9999 19.6907L17.5262 15.3454V6.65486Z"
          fill="currentColor"/>
</svg>