<svg xmlns="http://www.w3.org/2000/svg" width="15" height="15" viewBox="0 0 15 15" fill="none">
    <path d="M13.0208 0.54973C13.4113 0.15921 14.0445 0.1592 14.435 0.54973C14.8255 0.94025 14.8255 1.57342 14.435 1.96394L8.77811 7.62085L14.435 13.2776C14.8255 13.6681 14.8255 14.3013 14.435 14.6918C14.0445 15.0823 13.4113 15.0823 13.0208 14.6918L7.36391 9.03505L1.70712 14.6918C1.70101 14.6979 1.69485 14.7039 1.68863 14.7099C1.29686 15.0823 0.677318 15.0762 0.292897 14.6918C7.48038e-06 14.3989 -0.0732228 13.9696 0.0732272 13.6084C0.122037 13.488 0.195267 13.3752 0.292897 13.2776L5.94971 7.62085L0.292897 1.96399C-0.0976325 1.57347 -0.0976325 0.940299 0.292897 0.549779C0.683417 0.159249 1.31659 0.159249 1.70711 0.549779L7.36391 6.20655L13.0208 0.54973Z"
          fill="currentColor"/>
</svg>