<svg xmlns="http://www.w3.org/2000/svg" width="20" height="20" viewBox="0 0 20 20" fill="none">
    <path d="M9.27562 11.5065C8.99832 11.5065 8.76272 11.2794 8.79932 11.0046C8.81962 10.8526 8.85132 10.7447 8.89452 10.5978C8.89562 10.5942 8.89662 10.5905 8.89772 10.5869C8.90532 10.5613 8.91312 10.5344 8.92132 10.5059C9.02042 10.1735 9.16422 9.90508 9.35282 9.70048C9.54142 9.49598 9.76832 9.31058 10.0336 9.14438C10.2317 9.01658 10.4091 8.88388 10.5657 8.74648C10.7223 8.60908 10.8469 8.45728 10.9396 8.29108C11.0323 8.12168 11.0787 7.93311 11.0787 7.72537C11.0787 7.50484 11.0259 7.31148 10.9205 7.14529C10.815 6.9791 10.6728 6.85126 10.4938 6.76177C10.318 6.67228 10.1231 6.62754 9.90892 6.62754C9.70122 6.62754 9.50461 6.67388 9.31931 6.76656C9.13391 6.85605 8.98212 6.99028 8.86382 7.16926C8.82512 7.22675 8.79232 7.28885 8.76521 7.35556C8.66411 7.60488 8.45901 7.82604 8.19001 7.82604H7.22877C6.94773 7.82604 6.7171 7.59326 6.7618 7.3158C6.82869 6.90051 6.96687 6.54325 7.17634 6.24401C7.46717 5.82533 7.8523 5.51372 8.33172 5.30918C8.81112 5.10143 9.34002 4.99756 9.91852 4.99756C10.5545 4.99756 11.117 5.10303 11.606 5.31397C12.095 5.52171 12.4785 5.82374 12.7566 6.22004C13.0346 6.61635 13.1737 7.09416 13.1737 7.65346C13.1737 8.02738 13.1113 8.35978 12.9867 8.65058C12.8652 8.93828 12.6943 9.19398 12.4737 9.41768C12.2532 9.63818 11.9927 9.83798 11.6923 10.0169C11.4398 10.1672 11.2321 10.3238 11.0691 10.4868C10.9093 10.6498 10.7894 10.8383 10.7095 11.0525C10.7037 11.0687 10.6981 11.0851 10.6926 11.1015C10.6167 11.3313 10.4136 11.5065 10.1716 11.5065H9.27562Z"
          fill="currentColor"/>
    <path d="M9.72186 15.0747C9.40226 15.0747 9.12906 14.9629 8.90216 14.7392C8.67836 14.5122 8.56816 14.2406 8.57136 13.9242C8.56816 13.611 8.67836 13.3425 8.90216 13.1188C9.12906 12.8951 9.40226 12.7832 9.72186 12.7832C10.0256 12.7832 10.2924 12.8951 10.5226 13.1188C10.7527 13.3425 10.8693 13.611 10.8725 13.9242C10.8693 14.1351 10.8134 14.3285 10.7047 14.5043C10.5993 14.6768 10.4602 14.8159 10.2876 14.9213C10.1151 15.0236 9.92646 15.0747 9.72186 15.0747Z"
          fill="currentColor"/>
    <path fill-rule="evenodd" clip-rule="evenodd"
          d="M20 10C20 15.5228 15.5228 20 10 20C4.47715 20 0 15.5228 0 10C0 4.47715 4.47715 0 10 0C15.5228 0 20 4.47715 20 10ZM18 10C18 14.4183 14.4183 18 10 18C5.58172 18 2 14.4183 2 10C2 5.58172 5.58172 2 10 2C14.4183 2 18 5.58172 18 10Z"
          fill="currentColor"/>
</svg>