<svg xmlns="http://www.w3.org/2000/svg" width="14" height="21" viewBox="0 0 14 21" fill="none">
    <path fill-rule="evenodd" clip-rule="evenodd"
          d="M12.8284 6.42841L9 10.2568L12.8284 14.0852C13.5786 14.8354 14 15.8528 14 16.9137V18.2568C14 19.3614 13.1046 20.2568 12 20.2568H2C0.89543 20.2568 0 19.3614 0 18.2568V16.9137C0 15.8528 0.42143 14.8354 1.17157 14.0852L5 10.2568L1.17157 6.42841C0.42143 5.67827 0 4.66085 0 3.59999V2.25684C0 1.15227 0.89543 0.256836 2 0.256836H12C13.1046 0.256836 14 1.15227 14 2.25684V3.59999C14 4.66085 13.5786 5.67827 12.8284 6.42841ZM7 11.0852L11.4142 15.4994C11.7893 15.8745 12 16.3832 12 16.9137V18.2568H2V16.9137C2 16.3832 2.21071 15.8745 2.58579 15.4994L7 11.0852ZM7 9.42844L11.4142 5.0142C11.7893 4.63913 12 4.13042 12 3.59999V2.25684H2V3.59999C2 4.13042 2.21071 4.63913 2.58579 5.0142L7 9.42844Z"
          fill="currentColor"/>
</svg>