<svg xmlns="http://www.w3.org/2000/svg" width="16" height="18" viewBox="0 0 16 18" fill="none">
    <path fill-rule="evenodd" clip-rule="evenodd"
          d="M12 4C12 6.20914 10.2091 8 8 8C5.79086 8 4 6.20914 4 4C4 1.79086 5.79086 0 8 0C10.2091 0 12 1.79086 12 4ZM10 4C10 5.10457 9.1046 6 8 6C6.8954 6 6 5.10457 6 4C6 2.89543 6.8954 2 8 2C9.1046 2 10 2.89543 10 4Z"
          fill="currentColor"/>
    <path fill-rule="evenodd" clip-rule="evenodd"
          d="M16 14.1666C16 13.7333 15.8642 13.3074 15.5815 12.979C13.7477 10.8488 11.0313 9.5 8 9.5C4.96866 9.5 2.25235 10.8488 0.41847 12.979C0.13576 13.3074 0 13.7333 0 14.1666V16C0 17.1046 0.89543 18 2 18H14C15.1046 18 16 17.1046 16 16V14.1666ZM14 14.2083C12.5313 12.5445 10.3887 11.5 8 11.5C5.61132 11.5 3.46872 12.5445 2 14.2083V16H14V14.2083ZM2.00017 14.1622C2.00017 14.1622 2.00018 14.1622 2.00017 14.1623C2.00016 14.1624 2.00015 14.1625 2.00012 14.1627C2.00014 14.1625 2.00016 14.1623 2.00017 14.1622Z"
          fill="currentColor"/>
</svg>