<svg xmlns="http://www.w3.org/2000/svg" width="20" height="20" viewBox="0 0 20 20" fill="none">
    <path d="M11.0516 5.6465C11.0598 5.36473 10.8337 5.13184 10.5518 5.13184H9.44864C9.16664 5.13184 8.94034 5.36497 8.94884 5.64687L9.11054 11.0215C9.11154 11.0553 9.11594 11.0882 9.12324 11.1199C9.17474 11.342 9.37384 11.5065 9.61034 11.5065H10.3942C10.6646 11.5065 10.886 11.2914 10.8939 11.0211L11.0516 5.6465Z"
          fill="currentColor"/>
    <path d="M9.18735 14.7392C9.41425 14.9629 9.68595 15.0747 10.0024 15.0747C10.2069 15.0747 10.3955 15.0236 10.5681 14.9213C10.7407 14.8159 10.8797 14.6768 10.9852 14.5043C11.0938 14.3285 11.1498 14.1351 11.153 13.9242C11.1498 13.611 11.0331 13.3425 10.803 13.1188C10.5729 12.8951 10.306 12.7832 10.0024 12.7832C9.68595 12.7832 9.41425 12.8951 9.18735 13.1188C8.96045 13.3425 8.84855 13.611 8.85175 13.9242C8.84855 14.2406 8.96045 14.5122 9.18735 14.7392Z"
          fill="currentColor"/>
    <path fill-rule="evenodd" clip-rule="evenodd"
          d="M10 20C15.5228 20 20 15.5228 20 10C20 4.47715 15.5228 0 10 0C4.47715 0 0 4.47715 0 10C0 15.5228 4.47715 20 10 20ZM10 18C14.4183 18 18 14.4183 18 10C18 5.58172 14.4183 2 10 2C5.58172 2 2 5.58172 2 10C2 14.4183 5.58172 18 10 18Z"
          fill="currentColor"/>
</svg>