<svg xmlns="http://www.w3.org/2000/svg" width="20" height="20" viewBox="0 0 20 20" fill="none">
    <path fill-rule="evenodd" clip-rule="evenodd"
          d="M10 11.5C11.933 11.5 13.5 9.933 13.5 8C13.5 6.067 11.933 4.5 10 4.5C8.067 4.5 6.5 6.067 6.5 8C6.5 9.933 8.067 11.5 10 11.5ZM10 9.5C10.8284 9.5 11.5 8.8284 11.5 8C11.5 7.17157 10.8284 6.5 10 6.5C9.1716 6.5 8.5 7.17157 8.5 8C8.5 8.8284 9.1716 9.5 10 9.5Z"
          fill="currentColor"/>
    <path fill-rule="evenodd" clip-rule="evenodd"
          d="M15.2112 18.5365C18.0833 16.7794 20 13.6136 20 10C20 4.47715 15.5228 0 10 0C4.47715 0 0 4.47715 0 10C0 12.4815 0.90389 14.752 2.4004 16.5C2.4004 16.5 2.40041 16.5 2.4004 16.5C2.77735 16.9403 3.1919 17.3474 3.63907 17.7165C5.36766 19.143 7.58376 20 10 20C11.9093 20 13.6936 19.4649 15.2112 18.5365ZM16.1513 15.1152C17.3057 13.7285 18 11.9453 18 10C18 5.58172 14.4183 2 10 2C5.58172 2 2 5.58172 2 10C2 11.9453 2.69434 13.7285 3.84871 15.1152C5.54517 13.7898 7.68034 13 10 13C12.3196 13 14.4548 13.7898 16.1513 15.1152ZM14.665 16.4998C13.3511 15.5548 11.7409 15 10 15C8.2591 15 6.64889 15.5548 5.33501 16.4998C6.57009 17.3878 8.0686 17.9325 9.6908 17.9941C9.7934 17.998 9.8964 18 10 18C10.1208 18 10.241 17.9973 10.3605 17.992C11.963 17.921 13.4429 17.3785 14.665 16.4998Z"
          fill="currentColor"/>
</svg>