<svg xmlns="http://www.w3.org/2000/svg" width="21" height="21" viewBox="0 0 21 21" fill="none">
    <path fill-rule="evenodd" clip-rule="evenodd"
          d="M8.502 0C3.80753 0 0.00195312 3.80558 0.00195312 8.5C0.00195312 13.1944 3.80753 17 8.502 17C10.4884 17 12.3169 16.3176 13.7637 15.176L18.5877 20C18.9783 20.3905 19.6114 20.3905 20.002 20C20.3925 19.6095 20.3925 18.9763 20.002 18.5858L15.1779 13.7618C16.3196 12.3149 17.002 10.4865 17.002 8.5C17.002 3.80558 13.1964 0 8.502 0ZM2.00195 8.5C2.00195 4.91015 4.9121 2 8.502 2C12.0918 2 15.002 4.91015 15.002 8.5C15.002 10.2952 14.2755 11.9188 13.0981 13.0962C11.9208 14.2736 10.2972 15 8.502 15C4.9121 15 2.00195 12.0899 2.00195 8.5Z"
          fill="currentColor"/>
</svg>