<svg xmlns="http://www.w3.org/2000/svg" width="21" height="21" viewBox="0 0 21 21" fill="none">
    <path fill-rule="evenodd" clip-rule="evenodd"
          d="M19.9977 11.2567L2.24501 20.1342C1.43645 20.5385 0.549018 19.7476 0.857958 18.8981L3.87599 10.5985C3.95627 10.3777 3.95627 10.1357 3.87599 9.91502L0.857828 1.61505C0.548908 0.765506 1.43624 -0.0253745 2.24479 0.378855L20.2114 9.36102C20.9484 9.72941 20.9485 10.7813 20.2115 11.1498L20.0003 11.2554V11.2567H19.9977ZM3.59498 3.28988L15.5303 9.25672H5.76462C5.76165 9.24832 5.75863 9.23992 5.75558 9.23152L3.59498 3.28988ZM5.76462 11.2567C5.76165 11.2651 5.75863 11.2736 5.75558 11.282L3.59524 17.2229L15.526 11.2567H5.76462Z"
          fill="currentColor"/>
</svg>