<svg xmlns="http://www.w3.org/2000/svg" width="18" height="21" viewBox="0 0 18 21" fill="none">
    <path fill-rule="evenodd" clip-rule="evenodd"
          d="M13 10.2569C13 12.466 11.2091 14.2569 9 14.2569C6.79086 14.2569 5 12.466 5 10.2569C5 8.0477 6.79086 6.25684 9 6.25684C11.2091 6.25684 13 8.0477 13 10.2569ZM11 10.2569C11 11.3614 10.1046 12.2569 9 12.2569C7.8954 12.2569 7 11.3614 7 10.2569C7 9.15228 7.8954 8.25684 9 8.25684C10.1046 8.25684 11 9.15228 11 10.2569Z"
          fill="currentColor"/>
    <path fill-rule="evenodd" clip-rule="evenodd"
          d="M10.0006 0.434771C9.3815 0.0770814 8.6185 0.0770814 7.9994 0.434771L0.99945 4.47922C0.38096 4.83657 0 5.49664 0 6.21095V14.3024C0 15.0167 0.38095 15.6768 0.99944 16.0341L7.9994 20.0786C8.6185 20.4363 9.3815 20.4363 10.0006 20.0786L17.0006 16.0341C17.619 15.6768 18 15.0167 18 14.3024V6.21095C18 5.49664 17.619 4.83657 17.0006 4.47922L10.0006 0.434771ZM16 6.21095L9 2.1665L2 6.21095V14.3024L9 18.3468L16 14.3024V6.21095Z"
          fill="currentColor"/>
</svg>