<svg xmlns="http://www.w3.org/2000/svg" width="20" height="20" viewBox="0 0 20 20" fill="none">
    <path fill-rule="evenodd" clip-rule="evenodd"
          d="M19.0047 19.342C19.6329 18.8043 19.9962 18.02 20 17.1931V14.1795C20 13.3021 19.4281 12.5272 18.5898 12.2685L15.1131 11.1956C14.4856 11.002 13.8031 11.1287 13.2869 11.5346L11.8995 12.6258C11.0354 12.0205 10.2118 11.3319 9.4399 10.5601C8.6681 9.7882 7.97951 8.9646 7.37419 8.1005L8.4654 6.71309C8.8713 6.19694 8.998 5.5144 8.8044 4.88693L7.73153 1.41025C7.47281 0.57186 6.69786 0 5.82046 0H2.8069C1.98001 0.00381 1.19565 0.3671 0.657969 0.99532C0.213569 1.51456 -0.037941 2.17697 0.00466899 2.85909C0.273259 7.15824 2.04992 11.3803 5.33479 14.6652C8.6197 17.9501 12.8418 19.7267 17.1409 19.9953C17.823 20.0379 18.4854 19.7864 19.0047 19.342ZM5.80217 6.86404C5.257 7.55719 5.23015 8.5256 5.73607 9.2479C6.40782 10.2069 7.17126 11.1198 8.0257 11.9743C8.8802 12.8287 9.7931 13.5922 10.7521 14.2639C11.4744 14.7698 12.4428 14.743 13.136 14.1978L14.5233 13.1067L18 14.1795V17.1872C17.9979 17.4317 17.8901 17.6635 17.7042 17.8226C17.5325 17.9695 17.3695 18.0057 17.2656 17.9992C13.434 17.7598 9.6762 16.1782 6.749 13.251C3.82181 10.3238 2.24016 6.56596 2.00078 2.73438C1.99429 2.63048 2.03046 2.46752 2.17743 2.2958C2.33653 2.10991 2.5683 2.00206 2.81287 2H5.82046L6.89334 5.47667L5.80217 6.86404Z"
          fill="currentColor"/>
</svg>