<svg xmlns="http://www.w3.org/2000/svg" width="50" height="50" viewBox="-5 0 50 50" fill="none">
    <path opacity="0.35" fill-rule="evenodd" clip-rule="evenodd"
          d="M22.9375 20.6335L39.6058 33.0281C40.6273 33.7878 40.8432 35.2366 40.088 36.2642C39.9521 36.4491 39.7896 36.6126 39.6058 36.7493L22.9375 49.1439C21.4088 50.2807 19.3229 50.2858 17.7887 49.1565L0.941995 36.7559C-0.0832186 36.0013 -0.306129 34.5535 0.44411 33.5223C0.583537 33.3307 0.751466 33.1617 0.941995 33.0215L17.7887 20.6209C19.3229 19.4916 21.4088 19.4967 22.9375 20.6335Z"
          fill="#60AEA8"/>
    <path opacity="0.7" fill-rule="evenodd" clip-rule="evenodd"
          d="M22.9375 10.7216L39.6058 23.1162C40.6273 23.8759 40.8432 25.3247 40.088 26.3522C39.9521 26.5371 39.7896 26.7006 39.6058 26.8373L22.9375 39.232C21.4088 40.3688 19.3229 40.3739 17.7887 39.2446L0.941995 26.844C-0.0832186 26.0893 -0.306129 24.6416 0.44411 23.6104C0.583537 23.4187 0.751466 23.2498 0.941995 23.1096L17.7887 10.709C19.3229 9.57969 21.4088 9.58478 22.9375 10.7216Z"
          fill="#60AEA8"/>
    <path fill-rule="evenodd" clip-rule="evenodd"
          d="M22.9397 0.856075L39.6079 13.2507C40.6295 14.0104 40.8454 15.4592 40.0902 16.4868C39.9543 16.6717 39.7917 16.8352 39.6079 16.9719L22.9397 29.3665C21.4109 30.5033 19.325 30.5084 17.7908 29.3791L0.944132 16.9785C-0.0810824 16.2239 -0.303993 14.7761 0.446247 13.7449C0.585674 13.5532 0.753602 13.3843 0.944132 13.2441L17.7908 0.843502C19.325 -0.285793 21.4109 -0.280699 22.9397 0.856075Z"
          fill="#DB4D45"/>
    <path d="M27.8605 10.9105C25.815 9.50093 22.9514 9.4647 21.0739 11.0313L20.3386 11.644L19.6032 11.0313C17.7294 9.4647 14.7431 9.59752 12.6976 11.0071C10.3534 12.625 10.1707 15.1424 12.2685 16.8961L20.3383 22.8229L28.4049 16.8961C30.5064 15.1424 30.2046 12.5284 27.8605 10.9105Z"
          fill="white"/>
</svg>