<svg xmlns="http://www.w3.org/2000/svg" width="21" height="19" viewBox="0 0 21 19" fill="none">
    <path d="M11.4956 7.65322C11.5077 7.36893 11.2805 7.13184 10.996 7.13184H9.90685C9.62215 7.13184 9.39485 7.36927 9.40735 7.65372L9.55525 11.0284C9.56695 11.2957 9.78715 11.5065 10.0548 11.5065H10.8518C11.1196 11.5065 11.3399 11.2954 11.3513 11.0278L11.4956 7.65322Z"
          fill="currentColor"/>
    <path d="M9.63852 14.7392C9.86542 14.9629 10.1371 15.0747 10.4535 15.0747C10.658 15.0747 10.8466 15.0236 11.0192 14.9213C11.1918 14.8159 11.3308 14.6768 11.4362 14.5043C11.5449 14.3285 11.6008 14.1351 11.604 13.9242C11.6008 13.611 11.4842 13.3425 11.2541 13.1188C11.024 12.8951 10.7571 12.7832 10.4535 12.7832C10.1371 12.7832 9.86542 12.8951 9.63852 13.1188C9.41162 13.3425 9.29972 13.611 9.30292 13.9242C9.29972 14.2406 9.41162 14.5122 9.63852 14.7392Z"
          fill="currentColor"/>
    <path fill-rule="evenodd" clip-rule="evenodd"
          d="M9.15207 0.75C9.72947 -0.25 11.1729 -0.25 11.7502 0.75L20.6991 16.25C21.2765 17.25 20.5548 18.5 19.4001 18.5H1.50223C0.347531 18.5 -0.374149 17.25 0.203201 16.25L9.15207 0.75ZM18.5341 16.5L10.4512 2.5L2.36826 16.5H18.5341Z"
          fill="currentColor"/>
</svg>