<svg xmlns="http://www.w3.org/2000/svg" width="20" height="11" viewBox="0 0 20 11" fill="none">
    <path d="M14 1.70711L16.5858 4.29285H1C0.96548 4.29285 0.93137 4.29465 0.89776 4.29805C0.3935 4.34925 0 4.77515 0 5.29285C0 5.84515 0.44771 6.29285 1 6.29285H16.5858L14 8.87865C13.6095 9.26915 13.6095 9.90235 14 10.2928C14.3906 10.6834 15.0237 10.6834 15.4143 10.2928L19.7071 5.99995C20.0977 5.60945 20.0977 4.97625 19.7071 4.58575L15.4143 0.292897C15.0237 -0.0976325 14.3906 -0.0976325 14 0.292897C13.9512 0.341707 13.9085 0.394317 13.8719 0.449767C13.6156 0.837917 13.6583 1.3654 14 1.70711Z"
          fill="currentColor"/>
</svg>