<svg width="32" height="32" viewBox="0 0 32 32" fill="none" xmlns="http://www.w3.org/2000/svg">
<path d="M13.4628 17.5998L16.0002 20.1372C16.625 20.762 16.625 21.7751 16.0002 22.3999C15.3753 23.0247 14.3623 23.0247 13.7375 22.3999L8.46863 17.1311C7.84379 16.5063 7.84379 15.4932 8.46863 14.8684L13.737 9.59997C14.3618 8.97514 15.3749 8.97514 15.9997 9.59997C16.6247 10.2248 16.6247 11.2379 15.9997 11.8627L13.4628 14.3998H22.4C23.2836 14.3998 24 15.1161 24 15.9998C24 16.8835 23.2836 17.5998 22.4 17.5998H13.4628Z" fill="currentColor"/>
<path fill-rule="evenodd" clip-rule="evenodd" d="M0 16C0 7.16343 7.16344 0 16 0C24.8365 0 32 7.16343 32 16C32 24.8365 24.8365 32 16 32C7.16344 32 0 24.8365 0 16ZM16 28.8C8.93074 28.8 3.19999 23.0691 3.19999 16C3.19999 8.93073 8.93074 3.19999 16 3.19999C23.0691 3.19999 28.8 8.93073 28.8 16C28.8 23.0691 23.0691 28.8 16 28.8Z" fill="currentColor"/>
</svg>
