<svg xmlns="http://www.w3.org/2000/svg" width="18" height="21" viewBox="0 0 18 21" fill="none">
    <path fill-rule="evenodd" clip-rule="evenodd"
          d="M5.06299 17H1.33771C0.59891 17 0 16.4011 0 15.6623V14.7893C0 14.2839 0.20077 13.7992 0.55814 13.4419C1.48135 12.5187 2 11.2665 2 9.9609V7C2 3.13401 5.13401 0 9 0C12.866 0 16 3.13401 16 7V9.9609C16 11.2665 16.5187 12.5187 17.4419 13.4419C17.7992 13.7992 18 14.2839 18 14.7893V15.6623C18 16.4011 17.4011 17 16.6623 17H12.937C12.937 17.3646 12.9295 18.1575 12.5048 18.9285C11.827 20.159 10.5131 21 9 21C7.4869 21 6.17297 20.159 5.49515 18.9285C5.07046 18.1575 5.06299 17.3646 5.06299 17ZM14 9.9609C14 11.7839 14.719 13.5327 16 14.8283V15H2V14.8283C3.28099 13.5327 4 11.7839 4 9.9609V7C4 4.23858 6.23858 2 9 2C11.7614 2 14 4.23858 14 7V9.9609ZM10.937 17H7.063C7.063 17.332 7.0868 17.6728 7.247 17.9636C7.5863 18.5796 8.2409 18.9975 8.9933 19H9H9.0066C9.7591 18.9975 10.4137 18.5796 10.753 17.9636C10.9132 17.6728 10.937 17.332 10.937 17Z"
          fill="currentColor"/>
</svg>