<svg xmlns="http://www.w3.org/2000/svg" width="20" height="19" viewBox="0 0 20 19" fill="none">
    <path fill-rule="evenodd" clip-rule="evenodd"
          d="M2 2.25H4V1C4 0.44771 4.44772 0 5 0C5.55229 0 6 0.44771 6 1V2.25H14V1C14 0.44771 14.4477 0 15 0C15.5523 0 16 0.44771 16 1V2.25H18C19.1046 2.25 20 3.14543 20 4.25V16.25C20 17.3546 19.1046 18.25 18 18.25H2C0.89543 18.25 0 17.3546 0 16.25V4.25C0 3.14543 0.89543 2.25 2 2.25ZM2 16.25V8.25002H18V16.25H2ZM18 4.25V6.25H2V4.25H18Z"
          fill="currentColor"/>
</svg>