<svg xmlns="http://www.w3.org/2000/svg" width="20" height="21" viewBox="0 0 20 21" fill="none">
    <path d="M14.5001 7.25676C14.8906 7.64728 14.8906 8.28048 14.5001 8.67098L9.7072 13.4639C9.3167 13.8544 8.6835 13.8544 8.293 13.4639L6.0001 11.171C5.60958 10.7805 5.60958 10.1473 6.0001 9.75678C6.39063 9.36628 7.02379 9.36628 7.41432 9.75678L9.0001 11.3426L13.0859 7.25676C13.1347 7.20794 13.1873 7.16523 13.2428 7.12862C13.6309 6.87234 14.1584 6.91505 14.5001 7.25676Z"
          fill="currentColor"/>
    <path fill-rule="evenodd" clip-rule="evenodd"
          d="M20 10.2568C20 15.7796 15.5228 20.2568 10 20.2568C4.47715 20.2568 0 15.7796 0 10.2568C0 4.73399 4.47715 0.256836 10 0.256836C15.5228 0.256836 20 4.73399 20 10.2568ZM18 10.2568C18 14.6751 14.4183 18.2568 10 18.2568C5.58172 18.2568 2 14.6751 2 10.2568C2 5.83856 5.58172 2.25684 10 2.25684C14.4183 2.25684 18 5.83856 18 10.2568Z"
          fill="currentColor"/>
</svg>