<svg xmlns="http://www.w3.org/2000/svg" width="19" height="20" viewBox="0 0 19 20" fill="none">
    <path fill-rule="evenodd" clip-rule="evenodd"
          d="M10.0606 4.19595C9.47491 4.78174 9.47491 5.73149 10.0606 6.31727L12.9393 9.19599C13.5251 9.78179 14.4749 9.78179 15.0607 9.19599L17.9393 6.31727C18.5251 5.73149 18.5251 4.78174 17.9393 4.19595L15.0607 1.31727C14.4749 0.731482 13.5251 0.731482 12.9393 1.31727L10.0606 4.19595ZM11.8284 5.25661L14 7.42819L16.1716 5.25661L14 3.08503L11.8284 5.25661Z"
          fill="currentColor"/>
    <path fill-rule="evenodd" clip-rule="evenodd"
          d="M0 3.25684C0 2.15227 0.89543 1.25684 2 1.25684H6C7.1046 1.25684 8 2.15227 8 3.25684V7.25684C8 8.36142 7.1046 9.25682 6 9.25682H2C0.89543 9.25682 0 8.36142 0 7.25684V3.25684ZM2 3.25684H6V7.25684H2V3.25684Z"
          fill="currentColor"/>
    <path fill-rule="evenodd" clip-rule="evenodd"
          d="M2 11.2568C0.89543 11.2568 0 12.1523 0 13.2568V17.2568C0 18.3614 0.89543 19.2568 2 19.2568H6C7.1046 19.2568 8 18.3614 8 17.2568V13.2568C8 12.1523 7.1046 11.2568 6 11.2568H2ZM2 13.2568H6V17.2568H2V13.2568Z"
          fill="currentColor"/>
    <path fill-rule="evenodd" clip-rule="evenodd"
          d="M12 11.2568C10.8954 11.2568 10 12.1523 10 13.2568V17.2568C10 18.3614 10.8954 19.2568 12 19.2568H16C17.1046 19.2568 18 18.3614 18 17.2568V13.2568C18 12.1523 17.1046 11.2568 16 11.2568H12ZM12 13.2568H16V17.2568H12V13.2568Z"
          fill="currentColor"/>
</svg>