<svg xmlns="http://www.w3.org/2000/svg" width="20" height="20" viewBox="0 0 20 20" fill="none">
    <path d="M9.47595 14.95C9.19975 14.95 8.97595 14.7261 8.97595 14.45V8.58643C8.97595 8.31023 9.19975 8.08643 9.47595 8.08643H10.5182C10.7944 8.08643 11.0182 8.31023 11.0182 8.58643V14.45C11.0182 14.7261 10.7944 14.95 10.5182 14.95H9.47595Z"
          fill="currentColor"/>
    <path d="M10.0018 6.63703C9.69817 6.63703 9.43767 6.53635 9.22037 6.335C9.00617 6.13046 8.89917 5.88596 8.89917 5.60151C8.89917 5.32026 9.00617 5.07897 9.22037 4.87762C9.43767 4.67307 9.69817 4.5708 10.0018 4.5708C10.3054 4.5708 10.5643 4.67307 10.7784 4.87762C10.9958 5.07897 11.1044 5.32026 11.1044 5.60151C11.1044 5.88596 10.9958 6.13046 10.7784 6.335C10.5643 6.53635 10.3054 6.63703 10.0018 6.63703Z"
          fill="currentColor"/>
    <path fill-rule="evenodd" clip-rule="evenodd"
          d="M20 10C20 15.5228 15.5228 20 10 20C4.47715 20 0 15.5228 0 10C0 4.47715 4.47715 0 10 0C15.5228 0 20 4.47715 20 10ZM18 10C18 14.4183 14.4183 18 10 18C5.58172 18 2 14.4183 2 10C2 5.58172 5.58172 2 10 2C14.4183 2 18 5.58172 18 10Z"
          fill="currentColor"/>
</svg>