<svg xmlns="http://www.w3.org/2000/svg" width="22" height="22" viewBox="0 0 22 22" fill="none">
    <path d="M12.0603 4.28225C11.6698 4.67278 11.0369 4.67308 10.6464 4.28256C10.2559 3.89203 10.2559 3.25887 10.6464 2.86834L10.9995 2.51468C13.3426 0.171539 17.1416 0.171539 19.4848 2.51468C21.8279 4.85783 21.8279 8.65682 19.4848 11L17.0099 13.4748C14.6668 15.8179 10.868 15.818 8.5248 13.4751C8.13433 13.0846 8.13453 12.4512 8.52504 12.0607C8.91556 11.6702 9.54876 11.6702 9.93926 12.0607C11.5014 13.6225 14.0337 13.6226 15.5957 12.0606L18.0705 9.5858C19.6326 8.02365 19.6326 5.49099 18.0705 3.9289C16.5084 2.3668 13.9758 2.3668 12.4137 3.9289L12.0603 4.28225Z"
          fill="currentColor"/>
    <path d="M11.3532 19.1315L10.9995 19.4852C8.65633 21.8284 4.85734 21.8284 2.5142 19.4852C0.171048 17.1421 0.171048 13.3431 2.5142 11L4.98907 8.52506C7.33221 6.18192 11.1314 6.18215 13.4746 8.5253C13.8651 8.91582 13.8654 9.54888 13.4748 9.93938C13.0843 10.3299 12.4507 10.3298 12.0601 9.93928C10.498 8.37718 7.96538 8.37718 6.40328 9.93928L3.92841 12.4142C2.36631 13.9763 2.36631 16.5089 3.92841 18.071C5.49051 19.6331 8.02317 19.6331 9.5853 18.071L9.9393 17.7176C10.3298 17.3271 10.963 17.3271 11.3535 17.7176C11.744 18.1081 11.7437 18.741 11.3532 19.1315Z"
          fill="currentColor"/>
</svg>