<svg xmlns="http://www.w3.org/2000/svg" width="18" height="23" viewBox="0 0 18 23" fill="none">
    <path fill-rule="evenodd" clip-rule="evenodd"
          d="M9 13C11.2091 13 13 11.2091 13 9C13 6.79086 11.2091 5 9 5C6.79086 5 5 6.79086 5 9C5 11.2091 6.79086 13 9 13ZM9 11C10.1046 11 11 10.1046 11 9C11 7.89543 10.1046 7 9 7C7.8954 7 7 7.89543 7 9C7 10.1046 7.8954 11 9 11Z"
          fill="currentColor"/>
    <path fill-rule="evenodd" clip-rule="evenodd"
          d="M18 9C18 13.963 12.7052 19.549 10.238 21.8825C9.5344 22.5479 8.4656 22.5479 7.762 21.8825C5.29483 19.549 0 13.963 0 9C0 4.02944 4.02944 0 9 0C13.9706 0 18 4.02944 18 9ZM16 9C16 10.8435 14.9793 13.0547 13.4111 15.2728C11.9434 17.3488 10.1877 19.1658 9 20.2999C7.8123 19.1658 6.05661 17.3488 4.58891 15.2728C3.02075 13.0547 2 10.8435 2 9C2 5.13401 5.13401 2 9 2C12.866 2 16 5.13401 16 9Z"
          fill="currentColor"/>
</svg>