<svg xmlns="http://www.w3.org/2000/svg" width="18" height="18" viewBox="0 0 18 18" fill="none">
    <path d="M9 14C8.4477 14 8 13.5523 8 13V5C8 4.44772 8.4477 4 9 4C9.5523 4 10 4.44772 10 5V13C10 13.5523 9.5523 14 9 14Z"
          fill="currentColor"/>
    <path d="M5 14C4.44772 14 4 13.5523 4 13V8C4 7.4477 4.44772 7 5 7C5.55229 7 6 7.4477 6 8V13C6 13.5523 5.55229 14 5 14Z"
          fill="currentColor"/>
    <path d="M13 14C12.4477 14 12 13.5523 12 13V10C12 9.4477 12.4477 9 13 9C13.5523 9 14 9.4477 14 10V13C14 13.5523 13.5523 14 13 14Z"
          fill="currentColor"/>
    <path fill-rule="evenodd" clip-rule="evenodd"
          d="M0 2C0 0.89543 0.89543 0 2 0H16C17.1046 0 18 0.89543 18 2V16C18 17.1046 17.1046 18 16 18H2C0.89543 18 0 17.1046 0 16V2ZM2 16V2H16V16H2Z"
          fill="currentColor"/>
</svg>