<svg xmlns="http://www.w3.org/2000/svg" width="18" height="12" viewBox="0 0 18 12" fill="none">
    <path d="M0 1C0 0.44772 0.44772 0 1 0H17C17.5523 0 18 0.44772 18 1C18 1.55229 17.5523 2 17 2H1C0.44772 2 0 1.55229 0 1Z"
          fill="currentColor"/>
    <path d="M1 5C0.44772 5 0 5.4477 0 6C0 6.5522 0.44772 7 1 7H17C17.5523 7 18 6.5522 18 6C18 5.4477 17.5523 5 17 5H1Z"
          fill="currentColor"/>
    <path d="M0 11C0 10.4477 0.44772 10 1 10H17C17.5523 10 18 10.4477 18 11C18 11.5523 17.5523 12 17 12H1C0.44772 12 0 11.5523 0 11Z"
          fill="currentColor"/>
</svg>