<svg xmlns="http://www.w3.org/2000/svg" width="25" height="22" viewBox="0 0 25 22" fill="none">
    <path d="M12.8288 1.24359e-06C12.7121 -0.000207068 12.5969 0.0257576 12.4916 0.0759837C12.3863 0.12621 12.2936 0.199418 12.2203 0.290217L12.0814 0.393197C9.38991 -0.440004 6.31923 0.171634 4.18162 2.23123C3.28646 3.08064 2.62053 4.14254 2.24572 5.31826C1.87091 6.49398 1.79937 7.74536 2.03776 8.95614C2.01127 8.97952 1.98526 9.00345 1.95975 9.02791L0.744271 10.1981C0.509148 10.4212 0.321903 10.6898 0.193946 10.9875C0.065989 11.2853 0 11.606 0 11.9301C0 12.2542 0.065989 12.5749 0.193946 12.8726C0.321903 13.1704 0.509148 13.439 0.744271 13.662C1.36527 14.2612 2.22656 14.4858 3.02699 14.3361C3.12529 14.787 3.35466 15.2161 3.71821 15.5656C4.19722 16.0274 4.81978 16.2662 5.44702 16.2833C5.46419 16.8872 5.71227 17.4863 6.19129 17.9482C6.6703 18.41 7.29442 18.6503 7.92166 18.6659C7.93726 19.2697 8.18691 19.8705 8.66593 20.3323C9.12451 20.7675 9.72523 21.0218 10.3569 21.0482C10.9886 21.0746 11.6084 20.8713 12.1017 20.4758L12.7836 21.1312C13.7822 22.0939 15.4018 22.0939 16.4003 21.1312C16.8778 20.6724 17.1259 20.0764 17.1477 19.4741C17.7891 19.4576 18.4012 19.2022 18.8641 18.758C19.3415 18.2977 19.5896 17.7016 19.6083 17.0994C20.2425 17.0771 20.8462 16.8222 21.3044 16.3832C21.6835 16.0196 21.9176 15.5687 22.0081 15.0975C22.4097 15.1679 22.8222 15.143 23.2125 15.0249C23.6027 14.9067 23.9598 14.6986 24.2549 14.4172C24.4903 14.1941 24.6777 13.9254 24.8058 13.6275C24.9339 13.3296 25 13.0088 25 12.6845C25 12.3602 24.9339 12.0393 24.8058 11.7414C24.6777 11.4435 24.4903 11.1748 24.2549 10.9518L23.1315 9.87047L23.3609 9.01231C23.8248 7.25786 23.5899 5.39183 22.7055 3.80714C21.4011 1.45732 18.8703 0.00624237 16.1335 0.00624237H14.2144C14.1317 0.00214653 14.049 6.55881e-05 13.9663 1.24359e-06H12.8288ZM16.6562 5.79808L20.4088 9.41331L20.4134 9.41643L23.1299 12.0346C23.2182 12.1183 23.2884 12.2191 23.3365 12.3308C23.3845 12.4425 23.4093 12.5629 23.4093 12.6845C23.4093 12.8061 23.3845 12.9264 23.3365 13.0382C23.2884 13.1499 23.2182 13.2507 23.1299 13.3343C22.9476 13.507 22.7061 13.6032 22.4551 13.6032C22.2041 13.6032 21.9625 13.507 21.7803 13.3343L19.7191 11.3496C19.568 11.2047 19.3668 11.1238 19.1574 11.1238C18.948 11.1238 18.7468 11.2047 18.5957 11.3496L18.5738 11.3684C18.5003 11.4381 18.4417 11.522 18.4017 11.6151C18.3616 11.7082 18.341 11.8085 18.341 11.9098C18.341 12.0111 18.3616 12.1114 18.4017 12.2045C18.4417 12.2976 18.5003 12.3815 18.5738 12.4512L20.181 13.999C20.5554 14.3579 20.5554 14.9415 20.181 15.3019C20.0152 15.4589 19.8 15.5534 19.5723 15.569C19.3445 15.5847 19.1184 15.5206 18.9327 15.3877C18.7778 15.2758 18.5885 15.2216 18.3978 15.2348C18.2071 15.2479 18.027 15.3274 17.8889 15.4595C17.7539 15.5886 17.6723 15.7638 17.6605 15.9502C17.6486 16.1366 17.7073 16.3207 17.8249 16.4659C17.965 16.6413 18.034 16.863 18.0184 17.0869C18.0028 17.3109 17.9037 17.5208 17.7406 17.6751C17.5726 17.8345 17.3536 17.9294 17.1224 17.9431C16.8912 17.9568 16.6625 17.8884 16.4768 17.75C16.3226 17.6344 16.1326 17.5769 15.9402 17.5877C15.7477 17.5986 15.5653 17.677 15.4252 17.8093C15.2884 17.9382 15.2054 18.1141 15.193 18.3016C15.1805 18.4892 15.2395 18.6745 15.3581 18.8204C15.5014 18.9982 15.5725 19.2234 15.5572 19.4513C15.5419 19.6792 15.4412 19.8929 15.2754 20.0499C15.0907 20.2252 14.8458 20.3229 14.5912 20.3229C14.3366 20.3229 14.0917 20.2252 13.907 20.0499L13.2314 19.3992L13.4779 19.1621C13.7133 18.939 13.9007 18.6703 14.0288 18.3724C14.1569 18.0745 14.223 17.7536 14.223 17.4294C14.223 17.1051 14.1569 16.7842 14.0288 16.4863C13.9007 16.1884 13.7133 15.9197 13.4779 15.6966C13.0116 15.2497 12.3948 14.9937 11.7491 14.9789C11.7301 14.3471 11.4627 13.7483 11.0048 13.3125C10.5379 12.8658 9.9205 12.6103 9.27444 12.5963C9.2555 11.9645 8.98805 11.3657 8.53018 10.9299C8.23042 10.6446 7.86703 10.4348 7.47007 10.3179C7.07311 10.2009 6.65401 10.1802 6.24746 10.2574C6.14461 9.78791 5.90392 9.35979 5.55624 9.02791C5.28972 8.77357 4.97211 8.57886 4.62454 8.45673C4.27696 8.33459 3.90737 8.28782 3.54033 8.31953C3.41741 7.40522 3.51313 6.47479 3.81963 5.60466C4.12613 4.73453 4.63466 3.94951 5.30347 3.31408C5.9793 2.66841 6.7896 2.18026 7.67629 1.8846C8.56299 1.58895 9.5041 1.49312 10.4322 1.60399L8.16195 3.27352C7.87148 3.48458 7.62679 3.75232 7.44267 4.06058C7.25855 4.36883 7.13882 4.7112 7.09069 5.06702C7.04257 5.42284 7.06706 5.78472 7.16268 6.13081C7.25831 6.47689 7.42308 6.80001 7.64705 7.08065C8.10001 7.6486 8.75451 8.02004 9.47437 8.11769C10.1942 8.21534 10.924 8.03168 11.5119 7.60492L13.971 5.79964H16.6547L16.6562 5.79808ZM9.08565 4.52956L13.13 1.5603H13.9663C14.0428 1.5599 14.1193 1.56198 14.1956 1.56654H16.1335C18.3242 1.56654 20.3229 2.72897 21.3418 4.56545C22.0315 5.80745 22.2125 7.25073 21.852 8.61287L21.8474 8.62847L17.5409 4.46715C17.395 4.32073 17.1969 4.23824 16.9901 4.23778H13.7135C13.5479 4.2381 13.3867 4.29111 13.2532 4.38913L10.5882 6.34575C10.3264 6.5332 10.0029 6.61353 9.68389 6.57031C9.36484 6.5271 9.07436 6.3636 8.87189 6.11327C8.77753 5.99704 8.70796 5.86272 8.66748 5.71859C8.62699 5.57446 8.61643 5.42357 8.63645 5.27521C8.65648 5.12685 8.70666 4.98415 8.78392 4.85592C8.86117 4.72768 8.96385 4.61661 9.08565 4.52956ZM9.7753 17.9638L9.7909 17.9482L11.0048 16.7779L11.0189 16.7654C11.2022 16.5988 11.4417 16.5076 11.6894 16.5102C11.9372 16.5128 12.1747 16.609 12.3545 16.7795C12.4427 16.8632 12.513 16.964 12.561 17.0757C12.609 17.1874 12.6338 17.3077 12.6338 17.4294C12.6338 17.551 12.609 17.6713 12.561 17.783C12.513 17.8948 12.4427 17.9955 12.3545 18.0792L11.139 19.2495C10.9567 19.4221 10.7152 19.5183 10.4642 19.5183C10.2131 19.5183 9.97163 19.4221 9.78934 19.2495C9.70226 19.167 9.63262 19.0679 9.58454 18.9581C9.53647 18.8482 9.51095 18.7298 9.5095 18.6099C9.50804 18.49 9.53068 18.371 9.57607 18.26C9.62146 18.149 9.68868 18.0483 9.77374 17.9638H9.7753ZM9.89544 15.6826L9.87984 15.6966L8.66593 16.8669L8.65032 16.8809C8.46692 17.0469 8.22759 17.1375 7.98024 17.1347C7.73288 17.1318 7.49573 17.0356 7.31626 16.8653C7.22901 16.7825 7.15933 16.683 7.11137 16.5727C7.06342 16.4624 7.03818 16.3435 7.03716 16.2232C7.03614 16.1029 7.05936 15.9837 7.10544 15.8726C7.15151 15.7615 7.2195 15.6608 7.30534 15.5765L7.31626 15.5656L8.53018 14.3954L8.5411 14.3844C8.72418 14.2164 8.96416 14.1242 9.21262 14.1262C9.46108 14.1282 9.69953 14.2244 9.87984 14.3954C9.96717 14.4778 10.037 14.577 10.0852 14.687C10.1334 14.797 10.159 14.9156 10.1605 15.0357C10.1619 15.1558 10.1392 15.2749 10.0937 15.3861C10.0482 15.4972 9.98075 15.598 9.89544 15.6826ZM7.40676 13.3125L6.19129 14.4827L6.18036 14.4936C5.99728 14.6616 5.7573 14.7539 5.50884 14.7519C5.26038 14.7499 5.02194 14.6537 4.84162 14.4827C4.75338 14.399 4.68311 14.2983 4.63508 14.1865C4.58706 14.0748 4.56229 13.9545 4.56229 13.8329C4.56229 13.7112 4.58706 13.5909 4.63508 13.4792C4.68311 13.3675 4.75338 13.2667 4.84162 13.183L6.05554 12.0128C6.2379 11.8397 6.47973 11.7432 6.73115 11.7432C6.98257 11.7432 7.2244 11.8397 7.40676 12.0128C7.49426 12.0956 7.56415 12.1952 7.61224 12.3057C7.66034 12.4161 7.68565 12.5352 7.68667 12.6556C7.68769 12.7761 7.6644 12.8955 7.61818 13.0068C7.57196 13.1181 7.50377 13.2189 7.41768 13.3031L7.40676 13.3125ZM4.43283 11.4105L3.21891 12.5807C3.03673 12.7541 2.79483 12.8509 2.5433 12.8509C2.29177 12.8509 2.04987 12.7541 1.86769 12.5807C1.7792 12.497 1.70872 12.3961 1.66055 12.2843C1.61237 12.1724 1.58753 12.0519 1.58753 11.9301C1.58753 11.8083 1.61237 11.6877 1.66055 11.5759C1.70872 11.464 1.7792 11.3631 1.86769 11.2794L3.08316 10.1092C3.26545 9.93658 3.50695 9.84038 3.75799 9.84038C4.00904 9.84038 4.25054 9.93658 4.43283 10.1092C4.52131 10.1929 4.5918 10.2938 4.63997 10.4056C4.68814 10.5175 4.71299 10.638 4.71299 10.7598C4.71299 10.8816 4.68814 11.0022 4.63997 11.114C4.5918 11.2259 4.52131 11.3268 4.43283 11.4105Z"
          fill="currentColor"/>
</svg>