<svg xmlns="http://www.w3.org/2000/svg" width="20" height="19" viewBox="0 0 20 19" fill="none">
    <path fill-rule="evenodd" clip-rule="evenodd"
          d="M10 15C12.4853 15 14.5 12.9853 14.5 10.5C14.5 8.0147 12.4853 6 10 6C7.51472 6 5.5 8.0147 5.5 10.5C5.5 12.9853 7.51472 15 10 15ZM10 13C11.3807 13 12.5 11.8807 12.5 10.5C12.5 9.1193 11.3807 8 10 8C8.6193 8 7.5 9.1193 7.5 10.5C7.5 11.8807 8.6193 13 10 13Z"
          fill="currentColor"/>
    <path fill-rule="evenodd" clip-rule="evenodd"
          d="M5.86599 1.50002L5 3H2C0.89543 3 0 3.89543 0 5V17C0 18.1046 0.89543 19 2 19H18C19.1046 19 20 18.1046 20 17V5C20 3.89543 19.1046 3 18 3H15L14.134 1.50002C13.7768 0.88121 13.1165 0.5 12.402 0.5H7.59805C6.88351 0.5 6.22325 0.88121 5.86599 1.50002ZM5 5C5.71454 5 6.3748 4.6188 6.73207 3.99998L7.59805 2.5H12.4019L13.2679 3.99998C13.6252 4.6188 14.2855 5 15 5H18V17H2V5H5Z"
          fill="currentColor"/>
</svg>