<svg xmlns="http://www.w3.org/2000/svg" width="20" height="22" viewBox="0 0 20 22" fill="none">
    <path fill-rule="evenodd" clip-rule="evenodd"
          d="M16.25 7.5C18.3211 7.5 20 5.82107 20 3.75C20 1.67893 18.3211 0 16.25 0C14.1789 0 12.5 1.67893 12.5 3.75C12.5 4.07778 12.5421 4.39574 12.6211 4.69877L6.37469 8.32166C5.69831 7.65875 4.77189 7.25 3.75 7.25C1.67893 7.25 0 8.92893 0 11C0 13.0711 1.67893 14.75 3.75 14.75C4.77189 14.75 5.69831 14.3413 6.37469 13.6783L12.6211 17.3012C12.5421 17.6043 12.5 17.9222 12.5 18.25C12.5 20.3211 14.1789 22 16.25 22C18.3211 22 20 20.3211 20 18.25C20 16.1789 18.3211 14.5 16.25 14.5C15.2281 14.5 14.3017 14.9087 13.6253 15.5716L7.37895 11.9487C7.45795 11.6457 7.5 11.3278 7.5 11C7.5 10.6722 7.45795 10.3543 7.37895 10.0513L13.6253 6.42835C14.3017 7.09126 15.2281 7.5 16.25 7.5ZM18 3.75C18 4.7165 17.2165 5.5 16.25 5.5C15.2835 5.5 14.5 4.7165 14.5 3.75C14.5 2.7835 15.2835 2 16.25 2C17.2165 2 18 2.7835 18 3.75ZM3.75 12.75C4.7165 12.75 5.5 11.9665 5.5 11C5.5 10.0335 4.7165 9.25 3.75 9.25C2.7835 9.25 2 10.0335 2 11C2 11.9665 2.7835 12.75 3.75 12.75ZM16.25 20C17.2165 20 18 19.2165 18 18.25C18 17.2835 17.2165 16.5 16.25 16.5C15.2835 16.5 14.5 17.2835 14.5 18.25C14.5 19.2165 15.2835 20 16.25 20Z"
          fill="currentColor"/>
</svg>